<svg width="48" height="48" viewBox="0 0 48 48" fill="none" xmlns="http://www.w3.org/2000/svg">
<path d="M24.05 45.2L17.7 39H9V30.3L2.7 24L9 17.7V9H17.7L24.05 2.7L30.3 9H39V17.7L45.3 24L39 30.3V39H30.3L24.05 45.2ZM24.05 36.75C27.55 36.75 30.5417 35.5083 33.025 33.025C35.5083 30.5417 36.75 27.5167 36.75 23.95C36.75 20.45 35.5167 17.4583 33.05 14.975C30.5833 12.4917 27.5833 11.25 24.05 11.25C20.4833 11.25 17.4583 12.4833 14.975 14.95C12.4917 17.4167 11.25 20.4167 11.25 23.95C11.25 27.5167 12.4917 30.5417 14.975 33.025C17.4583 35.5083 20.4833 36.75 24.05 36.75ZM24 34.45C21.1 34.45 18.6333 33.4333 16.6 31.4C14.5667 29.3667 13.55 26.9 13.55 24C13.55 21.0667 14.5667 18.5917 16.6 16.575C18.6333 14.5583 21.1 13.55 24 13.55C26.9333 13.55 29.4083 14.5583 31.425 16.575C33.4417 18.5917 34.45 21.0667 34.45 24C34.45 26.9 33.4417 29.3667 31.425 31.4C29.4083 33.4333 26.9333 34.45 24 34.45ZM24.05 42L29.3 36.75H36.75V29.35L42.05 24L36.75 18.65V11.25H29.35L24.05 5.95L18.65 11.25H11.25V18.65L5.95 24L11.25 29.35V36.75H18.65L24.05 42Z" fill="white"/>
</svg>
