<svg width="48" height="48" viewBox="0 0 48 48" fill="none" xmlns="http://www.w3.org/2000/svg">
<path d="M26.2 45C23.5333 45 21.0417 44.4917 18.725 43.475C16.4083 42.4583 14.3833 41.0833 12.65 39.35C10.9167 37.6167 9.54167 35.5917 8.525 33.275C7.50833 30.9583 7 28.4667 7 25.8C7 21.4333 8.33333 17.5333 11 14.1C13.6667 10.6667 17.1167 8.41667 21.35 7.35001C20.9833 10.55 21.3167 13.6583 22.35 16.675C23.3833 19.6917 25.05 22.35 27.35 24.65C29.6167 26.95 32.2583 28.6083 35.275 29.625C38.2917 30.6417 41.4167 30.9667 44.65 30.6C43.5833 34.8667 41.3333 38.3333 37.9 41C34.4667 43.6667 30.5667 45 26.2 45ZM26.2 42.75C29.4333 42.75 32.3833 41.8583 35.05 40.075C37.7167 38.2917 39.85 35.9833 41.45 33.15C38.4833 32.85 35.6417 32.1333 32.925 31C30.2083 29.8667 27.8167 28.2667 25.75 26.2C23.65 24.1 22.0333 21.7083 20.9 19.025C19.7667 16.3417 19.0667 13.5167 18.8 10.55C15.9667 12.1167 13.6667 14.2417 11.9 16.925C10.1333 19.6083 9.25 22.5667 9.25 25.8C9.25 30.5 10.9 34.5 14.2 37.8C17.5 41.1 21.5 42.75 26.2 42.75Z" fill="white"/>
</svg>
