<svg width="48" height="48" viewBox="0 0 48 48" fill="none" xmlns="http://www.w3.org/2000/svg">
<path d="M22.85 10.05V3.05H25.15V10.05H22.85ZM34.65 14.95L33.05 13.35L38 8.35L39.6 10L34.65 14.95ZM37.95 25.15V22.85H44.95V25.15H37.95ZM22.85 44.95V37.95H25.15V44.95H22.85ZM13.35 14.9L8.35 10L10 8.4L14.95 13.35L13.35 14.9ZM38.05 39.65L33.05 34.65L34.6 33.1L39.65 37.95L38.05 39.65ZM3.05 25.15V22.85H10.05V25.15H3.05ZM10 39.65L8.4 38L13.3 33.1L14.15 33.85L15 34.65L10 39.65ZM24 35C20.9333 35 18.3333 33.9333 16.2 31.8C14.0667 29.6667 13 27.0667 13 24C13 20.9333 14.0667 18.3333 16.2 16.2C18.3333 14.0667 20.9333 13 24 13C27.0667 13 29.6667 14.0667 31.8 16.2C33.9333 18.3333 35 20.9333 35 24C35 27.0667 33.9333 29.6667 31.8 31.8C29.6667 33.9333 27.0667 35 24 35ZM24 32.75C26.4333 32.75 28.5 31.9 30.2 30.2C31.9 28.5 32.75 26.4333 32.75 24C32.75 21.5667 31.9 19.5 30.2 17.8C28.5 16.1 26.4333 15.25 24 15.25C21.5667 15.25 19.5 16.1 17.8 17.8C16.1 19.5 15.25 21.5667 15.25 24C15.25 26.4333 16.1 28.5 17.8 30.2C19.5 31.9 21.5667 32.75 24 32.75Z" fill="white"/>
</svg>
